{"title":"The Final Destination 2009 DVDrip English Klam","uid":6644817,"size":1468718655,"categoryP":"video","categoryS":"movies","magnet":"?xt=urn:btih:3cc3e33268987f5dfef784df2140d0340105944d&amp;dn=The+Final+Destination+2009+DVDrip+English+Klam&amp;tr=udp%3A%2F%2Ftracker.openbittorrent.com%3A80&amp;tr=udp%3A%2F%2Fopen.demonii.com%3A1337&amp;tr=udp%3A%2F%2Ftracker.coppersurfer.tk%3A6969&amp;tr=udp%3A%2F%2Fexodus.desync.com%3A6969","seeders":0,"leechers":0,"uploader":"Klambake","files":-1,"time":1314905379,"description":"With: Bobby Campo, Shantel VanSanten en Nick Zano\n\nNick en een paar vrienden gaan voor het weekend naar een circuit om een autorace te bekijken. Er gebeurt echter een verschrikkelijk ongeluk. Een auto rijdt met hoge snelheid het publiek in. Er vallen veel doden en het lijkt er zelfs op dat het stadion in elkaar gaat vallen, totdat Nick erachter komt dat het maar een visioen was. Hij besluit om samen met zijn vrienden te vluchten voor wat komen gaat, maar de ''dood'' zal de overlevenden blijven achtervolgen om alles wat gebeurd zou moeten zijn, recht te zetten.\n\nAfter a young man's premonition of a deadly race-car crash helps saves the lives of his peers, Death sets out to collect those who evaded their end. \n\n------------------ Dutch Friends ------------------\nYou can find my Friends at: http://www.Film-Test.nl \n------ They got my dutchs subs ---- and more ------\n\nGeneral:\n\nComplete name                    : The Final Destination\\The Final Destination.avi\nFormat                           : AVI\nFormat/Info                      : Audio Video Interleave\nFile size                        : 1.37 GiB\nDuration                         : 1h 18mn\nOverall bit rate                 : 2 496 Kbps\n\nVideo:\n\nFormat                           : MPEG-4 Visual\nFormat profile                   : Simple@L3\nFormat settings, BVOP            : No\nFormat settings, QPel            : No\nFormat settings, GMC             : No warppoints\nFormat settings, Matrix          : Default (H.263)\nCodec ID                         : XVID\nCodec ID/Hint                    : XviD\nDuration                         : 1h 18mn\nBit rate                         : 2 038 Kbps\nWidth                            : 720 pixels\nHeight                           : 304 pixels\nDisplay aspect ratio             : 2.35:1\nFrame rate                       : 25.000 fps\nColor space                      : YUV\nChroma subsampling               : 4:2:0\nBit depth                        : 8 bits\nScan type                        : Progressive\nBits/(Pixel*Frame)               : 0.372\nStream size                      : 1.12 GiB (82%)\nWriting library                  : XviD 1.1.2 (UTC 2006-11-01)\n\nAudio:\n\nFormat                           : AC-3\nFormat/Info                      : Audio Coding 3\nMode extension                   : CM (complete main)\nCodec ID                         : 2000\nDuration                         : 1h 18mn\nBit rate mode                    : Constant\nBit rate                         : 448 Kbps\nChannel(s)                       : 6 channels\nChannel positions                : Front: L C R, Side: L R, LFE\nSampling rate                    : 48.0 KHz\nBit depth                        : 16 bits\nStream size                      : 251 MiB (18%)\nAlignment                        : Aligned on interleaves\nInterleave, duration             : 32 ms (0.80 video frame)\nInterleave, preload duration     : 800 ms\n\n","torrent":{"xt":"urn:btih:3cc3e33268987f5dfef784df2140d0340105944d","amp;dn":"The+Final+Destination+2009+DVDrip+English+Klam","amp;tr":["udp%3A%2F%2Ftracker.openbittorrent.com%3A80","udp%3A%2F%2Fopen.demonii.com%3A1337","udp%3A%2F%2Ftracker.coppersurfer.tk%3A6969","udp%3A%2F%2Fexodus.desync.com%3A6969"],"infoHash":"3cc3e33268987f5dfef784df2140d0340105944d","infoHashBuffer":{"type":"Buffer","data":[60,195,227,50,104,152,127,93,254,247,132,223,33,64,208,52,1,5,148,77]},"announce":[],"urlList":[]}}